# xmcd
#
# Track frame offsets: 
#        225
#        21674
#        46362
#        61590
#        80848
#        100525
#        119408
#        138530
#        160535
#        181905
#
# Disc length: 2696 seconds
#
# Revision: 0
# Processed by: cddbd v1.5.2PL0 Copyright (c) Steve Scherf et al.
# Submitted via: ExactAudioCopy v1.0b4
#
DISCID=7f0a850a
DTITLE=Side A - Side A
DYEAR=1996
DGENRE=Soul
TTITLE0=Di pa huli
TTITLE1=Eva Marie
TTITLE2=Love will find a way
TTITLE3=Love that was
TTITLE4=Still a mystery
TTITLE5=Windows of our souls
TTITLE6=Why can't you love me anymore
TTITLE7=Heart for another love
TTITLE8=Love's bound in time
TTITLE9=Forever stay
EXTD=
EXTT0=
EXTT1=
EXTT2=
EXTT3=
EXTT4=
EXTT5=
EXTT6=
EXTT7=
EXTT8=
EXTT9=
PLAYORDER=
